<svg width="566" height="240" viewBox="0 0 566 240" fill="none" xmlns="http://www.w3.org/2000/svg">
<path d="M201.854 150.431C200.73 152.823 199.412 154.654 197.898 155.924C196.434 157.193 195.018 158.121 193.65 158.707C192.039 159.391 190.403 159.781 188.743 159.879C186.595 159.879 184.812 159.537 183.396 158.854C181.98 158.17 180.857 157.267 180.027 156.144C179.197 155.021 178.611 153.751 178.27 152.335C177.977 150.919 177.83 149.479 177.83 148.014V109.635H150.877V173.868L137.327 179.581V109.635H130.003L133.152 102.311H137.327V86.71C137.327 82.7061 137.767 78.7021 138.646 74.6982C139.524 70.6455 140.989 67.0078 143.04 63.7852C145.091 60.5625 147.776 57.9502 151.097 55.9482C154.417 53.9463 158.494 52.9453 163.328 52.9453C164.793 52.9453 166.282 53.1162 167.796 53.458C169.358 53.7998 170.872 54.3125 172.337 54.9961C173.802 55.6309 175.169 56.4365 176.438 57.4131C177.757 58.3408 178.88 59.415 179.808 60.6357L170.652 66.5684C169.822 64.3223 168.553 62.3936 166.844 60.7822C165.184 59.1709 163.06 58.3652 160.472 58.3652C158.372 58.3652 156.688 58.8535 155.418 59.8301C154.148 60.7578 153.172 61.9785 152.488 63.4922C151.854 64.957 151.414 66.5928 151.17 68.3994C150.975 70.1572 150.877 71.8662 150.877 73.5264V102.311H191.233V102.384L191.307 102.311V148.38C191.307 149.552 191.575 150.479 192.112 151.163C192.649 151.847 193.333 152.213 194.163 152.262C195.042 152.262 195.97 151.944 196.946 151.31C197.972 150.675 198.948 149.649 199.876 148.233L201.854 150.431ZM191.746 63.4189L187.864 90.1523L180.687 92.4229L176.292 68.6924L191.746 63.4189ZM271.434 150.431C270.848 151.7 270.091 152.896 269.163 154.02C268.235 155.143 267.186 156.144 266.014 157.022C264.891 157.901 263.67 158.585 262.352 159.073C261.033 159.61 259.666 159.879 258.25 159.879C254.393 159.879 251.585 158.829 249.827 156.729C248.118 154.581 247.264 151.676 247.264 148.014V118.204C247.264 117.862 247.239 117.472 247.19 117.032C247.19 116.544 247.117 116.104 246.971 115.714C246.824 115.274 246.629 114.908 246.385 114.615C246.141 114.322 245.799 114.176 245.359 114.176C243.992 114.176 242.601 115.006 241.185 116.666C239.817 118.326 238.475 120.475 237.156 123.111C235.887 125.748 234.69 128.702 233.567 131.974C232.493 135.245 231.541 138.492 230.711 141.715C229.881 144.889 229.222 147.867 228.733 150.65C228.294 153.434 228.074 155.655 228.074 157.315L214.744 162.003V112.784C214.744 111.808 214.5 110.929 214.012 110.147C213.523 109.317 212.767 108.902 211.741 108.902C210.521 108.902 209.397 109.366 208.372 110.294C207.396 111.173 206.614 112.052 206.028 112.931L204.051 110.733C204.637 109.513 205.369 108.341 206.248 107.218C207.176 106.046 208.201 105.021 209.324 104.142C210.496 103.263 211.741 102.579 213.06 102.091C214.427 101.554 215.843 101.285 217.308 101.285C221.116 101.285 223.851 102.359 225.511 104.508C227.22 106.607 228.074 109.464 228.074 113.077V136.954C228.514 134.952 229.1 132.682 229.832 130.143C230.613 127.555 231.541 124.942 232.615 122.306C233.689 119.669 234.886 117.105 236.204 114.615C237.571 112.076 239.061 109.83 240.672 107.877C242.283 105.875 244.041 104.288 245.945 103.116C247.85 101.896 249.9 101.285 252.098 101.285C254.393 101.285 256.126 101.798 257.298 102.823C258.47 103.8 259.3 105.069 259.788 106.632C260.325 108.146 260.618 109.83 260.667 111.686C260.716 113.541 260.74 115.323 260.74 117.032V148.38C260.74 149.356 260.984 150.26 261.473 151.09C261.961 151.871 262.718 152.262 263.743 152.262C264.866 152.262 265.916 151.822 266.893 150.943C267.918 150.016 268.724 149.112 269.31 148.233L271.434 150.431ZM306.81 150.431C305.687 152.823 304.393 154.654 302.928 155.924C301.463 157.193 300.022 158.121 298.606 158.707C296.995 159.391 295.335 159.781 293.626 159.879C291.429 159.879 289.622 159.537 288.206 158.854C286.839 158.17 285.74 157.267 284.91 156.144C284.129 155.021 283.567 153.751 283.226 152.335C282.933 150.919 282.786 149.479 282.786 148.014V109.635H275.022L278.172 102.311H282.786V76.3828L296.189 71.6953V102.311H310.105L307.103 109.635H296.189V148.38C296.189 149.552 296.458 150.479 296.995 151.163C297.532 151.847 298.216 152.213 299.046 152.262C299.876 152.262 300.804 151.944 301.829 151.31C302.854 150.675 303.855 149.649 304.832 148.233L306.81 150.431ZM368.113 144.718C366.404 146.915 364.524 148.966 362.474 150.87C360.472 152.774 358.274 154.435 355.882 155.851C353.538 157.267 351.048 158.39 348.411 159.22C345.774 160.05 343.04 160.465 340.208 160.465C336.595 160.465 333.274 159.83 330.247 158.561C327.22 157.242 324.607 155.46 322.41 153.214C320.213 150.919 318.504 148.233 317.283 145.157C316.062 142.032 315.452 138.688 315.452 135.123C315.452 132.193 315.867 129.312 316.697 126.48C317.527 123.648 318.699 120.987 320.213 118.497C321.727 116.007 323.509 113.712 325.56 111.612C327.659 109.464 329.954 107.633 332.444 106.119C334.935 104.605 337.571 103.434 340.354 102.604C343.138 101.725 345.994 101.285 348.924 101.285C350.975 101.285 352.903 101.529 354.71 102.018C356.565 102.506 358.201 103.287 359.617 104.361C361.033 105.387 362.156 106.729 362.986 108.39C363.816 110.001 364.231 111.93 364.231 114.176C364.231 116.031 363.67 117.984 362.547 120.035C361.473 122.086 360.032 124.137 358.226 126.188C356.468 128.238 354.466 130.265 352.22 132.267C349.974 134.22 347.679 136.051 345.335 137.76C343.04 139.42 340.818 140.885 338.67 142.154C336.521 143.424 334.642 144.4 333.03 145.084C334.837 147.33 336.937 149.161 339.329 150.577C341.722 151.993 344.261 152.701 346.946 152.701C348.655 152.701 350.389 152.384 352.146 151.749C353.904 151.065 355.589 150.211 357.2 149.186C358.86 148.16 360.423 147.037 361.888 145.816C363.401 144.596 364.744 143.448 365.916 142.374L368.113 144.718ZM350.462 116.886C350.462 115.763 350.267 114.688 349.876 113.663C349.534 112.638 349.021 111.759 348.338 111.026C347.654 110.245 346.824 109.635 345.848 109.195C344.92 108.707 343.846 108.463 342.625 108.463C340.428 108.463 338.401 109.244 336.546 110.807C334.69 112.32 333.079 114.2 331.712 116.446C330.394 118.692 329.344 121.085 328.562 123.624C327.83 126.114 327.464 128.312 327.464 130.216C327.464 132.071 327.757 133.976 328.343 135.929C328.929 137.882 329.734 139.762 330.76 141.568C332.713 140.494 334.837 139.005 337.132 137.101C339.427 135.196 341.551 133.121 343.504 130.875C345.506 128.58 347.166 126.212 348.484 123.771C349.803 121.329 350.462 119.034 350.462 116.886ZM427.879 143.106C426.17 145.304 424.29 147.452 422.239 149.552C420.237 151.603 418.04 153.434 415.647 155.045C413.304 156.656 410.813 157.975 408.177 159C405.54 159.977 402.806 160.465 399.974 160.465C396.36 160.465 393.04 159.83 390.013 158.561C386.985 157.291 384.373 155.484 382.176 153.141C379.979 150.797 378.27 147.965 377.049 144.645C375.828 141.324 375.218 137.613 375.218 133.512C375.218 129.215 376.072 125.138 377.781 121.28C379.539 117.423 381.858 114.054 384.739 111.173C387.669 108.243 391.062 105.948 394.92 104.288C398.777 102.579 402.83 101.725 407.078 101.725C408.738 101.725 410.398 101.896 412.059 102.237C413.768 102.53 415.379 103.019 416.893 103.702C418.455 104.337 419.871 105.216 421.141 106.339C422.459 107.413 423.558 108.707 424.437 110.221L413.963 115.934C413.475 114.762 412.767 113.736 411.839 112.857C410.96 111.979 409.959 111.246 408.836 110.66C407.713 110.074 406.517 109.635 405.247 109.342C404.026 109.049 402.83 108.902 401.658 108.902C399.314 108.902 397.215 109.439 395.359 110.514C393.504 111.539 391.917 112.906 390.599 114.615C389.329 116.275 388.353 118.18 387.669 120.328C386.985 122.428 386.644 124.576 386.644 126.773C386.644 130.973 387.156 134.684 388.182 137.906C389.207 141.129 390.623 143.839 392.43 146.036C394.236 148.233 396.36 149.894 398.802 151.017C401.243 152.14 403.904 152.701 406.785 152.701C408.445 152.701 410.154 152.286 411.912 151.456C413.67 150.626 415.354 149.601 416.966 148.38C418.626 147.11 420.188 145.768 421.653 144.352C423.167 142.936 424.51 141.666 425.682 140.543L427.879 143.106ZM493.504 150.431C492.967 151.7 492.234 152.896 491.307 154.02C490.428 155.143 489.402 156.144 488.23 157.022C487.107 157.901 485.862 158.585 484.495 159.073C483.177 159.61 481.785 159.879 480.32 159.879C476.512 159.879 473.729 158.829 471.971 156.729C470.262 154.581 469.407 151.676 469.407 148.014V118.204C469.407 117.813 469.383 117.398 469.334 116.959C469.285 116.471 469.163 116.031 468.968 115.641C468.821 115.201 468.602 114.859 468.309 114.615C468.016 114.322 467.625 114.176 467.137 114.176C465.867 114.176 464.671 114.713 463.548 115.787C462.425 116.812 461.399 118.229 460.472 120.035C459.544 121.793 458.665 123.819 457.835 126.114C457.054 128.409 456.346 130.802 455.711 133.292C455.076 135.782 454.515 138.272 454.026 140.763C453.587 143.253 453.196 145.597 452.854 147.794C452.513 149.991 452.244 151.92 452.049 153.58C451.902 155.24 451.829 156.485 451.829 157.315L438.353 162.003V58.6582L451.829 53.9707V133.219C452.122 131.461 452.586 129.459 453.221 127.213C453.855 124.918 454.637 122.599 455.564 120.255C456.492 117.911 457.566 115.592 458.787 113.297C460.057 111.002 461.473 108.976 463.035 107.218C464.598 105.46 466.307 104.044 468.162 102.97C470.066 101.847 472.117 101.285 474.314 101.285C476.561 101.285 478.27 101.798 479.441 102.823C480.613 103.8 481.443 105.069 481.932 106.632C482.469 108.146 482.762 109.83 482.811 111.686C482.859 113.541 482.884 115.323 482.884 117.032V148.38C482.884 149.356 483.104 150.26 483.543 151.09C484.031 151.871 484.812 152.262 485.887 152.262C487.107 152.262 488.206 151.822 489.183 150.943C490.159 150.016 490.965 149.112 491.6 148.233L493.504 150.431Z" fill="#1C8A7C"/>
<path d="M141.595 195.939C253.34 142.94 379.552 231.857 455.845 185.376" stroke="#1C8A7C" stroke-width="7"/>
</svg>
